<svg xmlns="http://www.w3.org/2000/svg" version="1.1" xmlns:xlink="http://www.w3.org/1999/xlink" xmlns:svgjs="http://svgjs.dev/svgjs" width="1004" height="600" preserveAspectRatio="none" viewBox="0 0 1004 600">
    <g mask="url(&quot;#SvgjsMask6847&quot;)" fill="none">
        <rect width="1004" height="600" x="0" y="0" fill="url(&quot;#SvgjsRadialGradient6848&quot;)"></rect>
        <path d="M0 -40L34.64 -20L34.64 20L0 40L-34.64 20L-34.64 -20zM34.64 20L69.28 40L69.28 80L34.64 100L0 80L0 40zM0 80L34.64 100L34.64 140L0 160L-34.64 140L-34.64 100zM34.64 140L69.28 160L69.28 200L34.64 220L0 200L0 160zM0 200L34.64 220L34.64 260L0 280L-34.64 260L-34.64 220zM34.64 260L69.28 280L69.28 320L34.64 340L0 320L0 280zM0 320L34.64 340L34.64 380L0 400L-34.64 380L-34.64 340zM34.64 380L69.28 400L69.28 440L34.64 460L0 440L0 400zM0 440L34.64 460L34.64 500L0 520L-34.64 500L-34.64 460zM34.64 500L69.28 520L69.28 560L34.64 580L0 560L0 520zM0 560L34.64 580L34.64 620L0 640L-34.64 620L-34.64 580zM69.28 -40L103.93 -20L103.93 20L69.28 40L34.64 20L34.64 -20zM103.93 20L138.57 40L138.57 80L103.93 100L69.28 80L69.28 40zM69.28 80L103.93 100L103.93 140L69.28 160L34.64 140L34.64 100zM103.93 140L138.57 160L138.57 200L103.93 220L69.28 200L69.28 160zM69.28 200L103.93 220L103.93 260L69.28 280L34.64 260L34.64 220zM103.93 260L138.57 280L138.57 320L103.93 340L69.28 320L69.28 280zM69.28 320L103.93 340L103.93 380L69.28 400L34.64 380L34.64 340zM103.93 380L138.57 400L138.57 440L103.93 460L69.28 440L69.28 400zM69.28 440L103.93 460L103.93 500L69.28 520L34.64 500L34.64 460zM103.93 500L138.57 520L138.57 560L103.93 580L69.28 560L69.28 520zM69.28 560L103.93 580L103.93 620L69.28 640L34.64 620L34.64 580zM138.57 -40L173.21 -20L173.21 20L138.57 40L103.93 20L103.93 -20zM173.21 20L207.85 40L207.85 80L173.21 100L138.57 80L138.57 40zM138.57 80L173.21 100L173.21 140L138.57 160L103.93 140L103.93 100zM173.21 140L207.85 160L207.85 200L173.21 220L138.57 200L138.57 160zM138.57 200L173.21 220L173.21 260L138.57 280L103.93 260L103.93 220zM173.21 260L207.85 280L207.85 320L173.21 340L138.57 320L138.57 280zM138.57 320L173.21 340L173.21 380L138.57 400L103.93 380L103.93 340zM173.21 380L207.85 400L207.85 440L173.21 460L138.57 440L138.57 400zM138.57 440L173.21 460L173.21 500L138.57 520L103.93 500L103.93 460zM173.21 500L207.85 520L207.85 560L173.21 580L138.57 560L138.57 520zM138.57 560L173.21 580L173.21 620L138.57 640L103.93 620L103.93 580zM207.85 -40L242.49 -20L242.49 20L207.85 40L173.21 20L173.21 -20zM242.49 20L277.14 40L277.14 80L242.49 100L207.85 80L207.85 40zM207.85 80L242.49 100L242.49 140L207.85 160L173.21 140L173.21 100zM242.49 140L277.14 160L277.14 200L242.49 220L207.85 200L207.85 160zM207.85 200L242.49 220L242.49 260L207.85 280L173.21 260L173.21 220zM242.49 260L277.14 280L277.14 320L242.49 340L207.85 320L207.85 280zM207.85 320L242.49 340L242.49 380L207.85 400L173.21 380L173.21 340zM242.49 380L277.14 400L277.14 440L242.49 460L207.85 440L207.85 400zM207.85 440L242.49 460L242.49 500L207.85 520L173.21 500L173.21 460zM242.49 500L277.14 520L277.14 560L242.49 580L207.85 560L207.85 520zM207.85 560L242.49 580L242.49 620L207.85 640L173.21 620L173.21 580zM277.14 -40L311.78 -20L311.78 20L277.14 40L242.49 20L242.49 -20zM311.78 20L346.42 40L346.42 80L311.78 100L277.14 80L277.14 40zM277.14 80L311.78 100L311.78 140L277.14 160L242.49 140L242.49 100zM311.78 140L346.42 160L346.42 200L311.78 220L277.14 200L277.14 160zM277.14 200L311.78 220L311.78 260L277.14 280L242.49 260L242.49 220zM311.78 260L346.42 280L346.42 320L311.78 340L277.14 320L277.14 280zM277.14 320L311.78 340L311.78 380L277.14 400L242.49 380L242.49 340zM311.78 380L346.42 400L346.42 440L311.78 460L277.14 440L277.14 400zM277.14 440L311.78 460L311.78 500L277.14 520L242.49 500L242.49 460zM311.78 500L346.42 520L346.42 560L311.78 580L277.14 560L277.14 520zM277.14 560L311.78 580L311.78 620L277.14 640L242.49 620L242.49 580zM346.42 -40L381.06 -20L381.06 20L346.42 40L311.78 20L311.78 -20zM381.06 20L415.7 40L415.7 80L381.06 100L346.42 80L346.42 40zM346.42 80L381.06 100L381.06 140L346.42 160L311.78 140L311.78 100zM381.06 140L415.7 160L415.7 200L381.06 220L346.42 200L346.42 160zM346.42 200L381.06 220L381.06 260L346.42 280L311.78 260L311.78 220zM381.06 260L415.7 280L415.7 320L381.06 340L346.42 320L346.42 280zM346.42 320L381.06 340L381.06 380L346.42 400L311.78 380L311.78 340zM381.06 380L415.7 400L415.7 440L381.06 460L346.42 440L346.42 400zM346.42 440L381.06 460L381.06 500L346.42 520L311.78 500L311.78 460zM381.06 500L415.7 520L415.7 560L381.06 580L346.42 560L346.42 520zM346.42 560L381.06 580L381.06 620L346.42 640L311.78 620L311.78 580zM415.7 -40L450.35 -20L450.35 20L415.7 40L381.06 20L381.06 -20zM450.35 20L484.99 40L484.99 80L450.35 100L415.7 80L415.7 40zM415.7 80L450.35 100L450.35 140L415.7 160L381.06 140L381.06 100zM450.35 140L484.99 160L484.99 200L450.35 220L415.7 200L415.7 160zM415.7 200L450.35 220L450.35 260L415.7 280L381.06 260L381.06 220zM450.35 260L484.99 280L484.99 320L450.35 340L415.7 320L415.7 280zM415.7 320L450.35 340L450.35 380L415.7 400L381.06 380L381.06 340zM450.35 380L484.99 400L484.99 440L450.35 460L415.7 440L415.7 400zM415.7 440L450.35 460L450.35 500L415.7 520L381.06 500L381.06 460zM450.35 500L484.99 520L484.99 560L450.35 580L415.7 560L415.7 520zM415.7 560L450.35 580L450.35 620L415.7 640L381.06 620L381.06 580zM484.99 -40L519.63 -20L519.63 20L484.99 40L450.35 20L450.35 -20zM519.63 20L554.27 40L554.27 80L519.63 100L484.99 80L484.99 40zM484.99 80L519.63 100L519.63 140L484.99 160L450.35 140L450.35 100zM519.63 140L554.27 160L554.27 200L519.63 220L484.99 200L484.99 160zM484.99 200L519.63 220L519.63 260L484.99 280L450.35 260L450.35 220zM519.63 260L554.27 280L554.27 320L519.63 340L484.99 320L484.99 280zM484.99 320L519.63 340L519.63 380L484.99 400L450.35 380L450.35 340zM519.63 380L554.27 400L554.27 440L519.63 460L484.99 440L484.99 400zM484.99 440L519.63 460L519.63 500L484.99 520L450.35 500L450.35 460zM519.63 500L554.27 520L554.27 560L519.63 580L484.99 560L484.99 520zM484.99 560L519.63 580L519.63 620L484.99 640L450.35 620L450.35 580zM554.27 -40L588.91 -20L588.91 20L554.27 40L519.63 20L519.63 -20zM588.91 20L623.56 40L623.56 80L588.91 100L554.27 80L554.27 40zM554.27 80L588.91 100L588.91 140L554.27 160L519.63 140L519.63 100zM588.91 140L623.56 160L623.56 200L588.91 220L554.27 200L554.27 160zM554.27 200L588.91 220L588.91 260L554.27 280L519.63 260L519.63 220zM588.91 260L623.56 280L623.56 320L588.91 340L554.27 320L554.27 280zM554.27 320L588.91 340L588.91 380L554.27 400L519.63 380L519.63 340zM588.91 380L623.56 400L623.56 440L588.91 460L554.27 440L554.27 400zM554.27 440L588.91 460L588.91 500L554.27 520L519.63 500L519.63 460zM588.91 500L623.56 520L623.56 560L588.91 580L554.27 560L554.27 520zM554.27 560L588.91 580L588.91 620L554.27 640L519.63 620L519.63 580zM623.56 -40L658.2 -20L658.2 20L623.56 40L588.91 20L588.91 -20zM658.2 20L692.84 40L692.84 80L658.2 100L623.56 80L623.56 40zM623.56 80L658.2 100L658.2 140L623.56 160L588.91 140L588.91 100zM658.2 140L692.84 160L692.84 200L658.2 220L623.56 200L623.56 160zM623.56 200L658.2 220L658.2 260L623.56 280L588.91 260L588.91 220zM658.2 260L692.84 280L692.84 320L658.2 340L623.56 320L623.56 280zM623.56 320L658.2 340L658.2 380L623.56 400L588.91 380L588.91 340zM658.2 380L692.84 400L692.84 440L658.2 460L623.56 440L623.56 400zM623.56 440L658.2 460L658.2 500L623.56 520L588.91 500L588.91 460zM658.2 500L692.84 520L692.84 560L658.2 580L623.56 560L623.56 520zM623.56 560L658.2 580L658.2 620L623.56 640L588.91 620L588.91 580zM692.84 -40L727.48 -20L727.48 20L692.84 40L658.2 20L658.2 -20zM727.48 20L762.12 40L762.12 80L727.48 100L692.84 80L692.84 40zM692.84 80L727.48 100L727.48 140L692.84 160L658.2 140L658.2 100zM727.48 140L762.12 160L762.12 200L727.48 220L692.84 200L692.84 160zM692.84 200L727.48 220L727.48 260L692.84 280L658.2 260L658.2 220zM727.48 260L762.12 280L762.12 320L727.48 340L692.84 320L692.84 280zM692.84 320L727.48 340L727.48 380L692.84 400L658.2 380L658.2 340zM727.48 380L762.12 400L762.12 440L727.48 460L692.84 440L692.84 400zM692.84 440L727.48 460L727.48 500L692.84 520L658.2 500L658.2 460zM727.48 500L762.12 520L762.12 560L727.48 580L692.84 560L692.84 520zM692.84 560L727.48 580L727.48 620L692.84 640L658.2 620L658.2 580zM762.12 -40L796.77 -20L796.77 20L762.12 40L727.48 20L727.48 -20zM796.77 20L831.41 40L831.41 80L796.77 100L762.12 80L762.12 40zM762.12 80L796.77 100L796.77 140L762.12 160L727.48 140L727.48 100zM796.77 140L831.41 160L831.41 200L796.77 220L762.12 200L762.12 160zM762.12 200L796.77 220L796.77 260L762.12 280L727.48 260L727.48 220zM796.77 260L831.41 280L831.41 320L796.77 340L762.12 320L762.12 280zM762.12 320L796.77 340L796.77 380L762.12 400L727.48 380L727.48 340zM796.77 380L831.41 400L831.41 440L796.77 460L762.12 440L762.12 400zM762.12 440L796.77 460L796.77 500L762.12 520L727.48 500L727.48 460zM796.77 500L831.41 520L831.41 560L796.77 580L762.12 560L762.12 520zM762.12 560L796.77 580L796.77 620L762.12 640L727.48 620L727.48 580zM831.41 -40L866.05 -20L866.05 20L831.41 40L796.77 20L796.77 -20zM866.05 20L900.69 40L900.69 80L866.05 100L831.41 80L831.41 40zM831.41 80L866.05 100L866.05 140L831.41 160L796.77 140L796.77 100zM866.05 140L900.69 160L900.69 200L866.05 220L831.41 200L831.41 160zM831.41 200L866.05 220L866.05 260L831.41 280L796.77 260L796.77 220zM866.05 260L900.69 280L900.69 320L866.05 340L831.41 320L831.41 280zM831.41 320L866.05 340L866.05 380L831.41 400L796.77 380L796.77 340zM866.05 380L900.69 400L900.69 440L866.05 460L831.41 440L831.41 400zM831.41 440L866.05 460L866.05 500L831.41 520L796.77 500L796.77 460zM866.05 500L900.69 520L900.69 560L866.05 580L831.41 560L831.41 520zM831.41 560L866.05 580L866.05 620L831.41 640L796.77 620L796.77 580zM900.69 -40L935.33 -20L935.33 20L900.69 40L866.05 20L866.05 -20zM935.33 20L969.98 40L969.98 80L935.33 100L900.69 80L900.69 40zM900.69 80L935.33 100L935.33 140L900.69 160L866.05 140L866.05 100zM935.33 140L969.98 160L969.98 200L935.33 220L900.69 200L900.69 160zM900.69 200L935.33 220L935.33 260L900.69 280L866.05 260L866.05 220zM935.33 260L969.98 280L969.98 320L935.33 340L900.69 320L900.69 280zM900.69 320L935.33 340L935.33 380L900.69 400L866.05 380L866.05 340zM935.33 380L969.98 400L969.98 440L935.33 460L900.69 440L900.69 400zM900.69 440L935.33 460L935.33 500L900.69 520L866.05 500L866.05 460zM935.33 500L969.98 520L969.98 560L935.33 580L900.69 560L900.69 520zM900.69 560L935.33 580L935.33 620L900.69 640L866.05 620L866.05 580zM969.98 -40L1004.62 -20L1004.62 20L969.98 40L935.33 20L935.33 -20zM1004.62 20L1039.26 40L1039.26 80L1004.62 100L969.98 80L969.98 40zM969.98 80L1004.62 100L1004.62 140L969.98 160L935.33 140L935.33 100zM1004.62 140L1039.26 160L1039.26 200L1004.62 220L969.98 200L969.98 160zM969.98 200L1004.62 220L1004.62 260L969.98 280L935.33 260L935.33 220zM1004.62 260L1039.26 280L1039.26 320L1004.62 340L969.98 320L969.98 280zM969.98 320L1004.62 340L1004.62 380L969.98 400L935.33 380L935.33 340zM1004.62 380L1039.26 400L1039.26 440L1004.62 460L969.98 440L969.98 400zM969.98 440L1004.62 460L1004.62 500L969.98 520L935.33 500L935.33 460zM1004.62 500L1039.26 520L1039.26 560L1004.62 580L969.98 560L969.98 520zM969.98 560L1004.62 580L1004.62 620L969.98 640L935.33 620L935.33 580z" stroke="url(&quot;#SvgjsRadialGradient6849&quot;)" stroke-width="2"></path>
    </g>
    <defs>
        <mask id="SvgjsMask6847">
            <rect width="1004" height="600" fill="#ffffff"></rect>
        </mask>
        <radialGradient cx="50%" cy="50%" r="584.81" gradientUnits="userSpaceOnUse" id="SvgjsRadialGradient6848">
            <stop stop-color="rgba(255, 90, 31, 0.6)" offset="0.04"></stop>
            <stop stop-color="rgba(0, 0, 0, 0)" offset="0.5"></stop>
        </radialGradient>
        <radialGradient cx="502" cy="300" r="584.81" gradientUnits="userSpaceOnUse" id="SvgjsRadialGradient6849">
            <stop stop-color="rgba(193, 84, 11, 0.5)" offset="0"></stop>
            <stop stop-color="rgba(93, 39, 3, 0)" offset="1"></stop>
        </radialGradient>
    </defs>
</svg>